<svg width="259" height="34" viewBox="0 0 259 34" fill="none" xmlns="http://www.w3.org/2000/svg">
<path d="M19.4008 28.3008H14.9159V22.9688H4.99074V28.3008H0.505791V19.1719H1.91535C2.93271 17.4375 3.77146 15.4336 4.43158 13.1602C5.0917 10.8789 5.51884 8.4375 5.71299 5.83594H17.071V19.1719H19.4008V28.3008ZM12.4346 19.1719V9.62109H9.4058C9.08738 12.9648 8.21369 16.1484 6.78472 19.1719H12.4346Z" fill="#BFBFBF"/>
<path d="M37.6202 14.3789C37.6202 17.2617 36.9174 19.4531 35.5117 20.9531C34.106 22.4531 32.048 23.2031 29.3376 23.2031C26.6661 23.2031 24.6158 22.4492 23.1868 20.9414C21.7656 19.4336 21.055 17.2383 21.055 14.3555C21.055 11.5039 21.7617 9.32812 23.1752 7.82812C24.5964 6.32031 26.6583 5.56641 29.3609 5.56641C32.0713 5.56641 34.1254 6.3125 35.5234 7.80469C36.9213 9.29688 37.6202 11.4883 37.6202 14.3789ZM25.9011 14.3789C25.9011 17.6914 27.0466 19.3477 29.3376 19.3477C30.5025 19.3477 31.3646 18.9453 31.9237 18.1406C32.4907 17.3359 32.7741 16.082 32.7741 14.3789C32.7741 12.668 32.4868 11.4062 31.9121 10.5938C31.3452 9.77344 30.4948 9.36328 29.3609 9.36328C27.0544 9.36328 25.9011 11.0352 25.9011 14.3789Z" fill="#BFBFBF"/>
<path d="M55.1989 22.9688H50.5741V9.62109H47.324C47.1454 11.5664 46.9046 13.5469 46.6018 15.5625C46.3066 17.5781 46.0232 18.9922 45.7514 19.8047C45.4796 20.6172 45.134 21.2656 44.7146 21.75C44.303 22.2266 43.7904 22.5898 43.1769 22.8398C42.5634 23.082 41.8217 23.2031 40.9519 23.2031C40.2918 23.2031 39.6899 23.1172 39.1463 22.9453V19.3711C39.6122 19.5273 39.9928 19.6055 40.2879 19.6055C40.6917 19.6055 40.9985 19.4375 41.2082 19.1016C41.4256 18.7578 41.6237 18.1797 41.8023 17.3672C41.9809 16.5469 42.2294 15.0312 42.5478 12.8203C42.8662 10.6016 43.1614 8.27344 43.4332 5.83594H55.1989V22.9688Z" fill="#BFBFBF"/>
<path d="M71.0535 17.2852C71.0535 19.1133 70.4322 20.5195 69.1896 21.5039C67.9548 22.4805 66.1996 22.9688 63.9242 22.9688H58.8917V5.83594H63.5164V11.9297H63.7494C66.1259 11.9297 67.9354 12.3828 69.178 13.2891C70.4283 14.1875 71.0535 15.5195 71.0535 17.2852ZM63.5164 19.418H63.7261C65.5279 19.418 66.4287 18.7461 66.4287 17.4023C66.4287 16.1211 65.5201 15.4805 63.7028 15.4805H63.5164V19.418Z" fill="#BFBFBF"/>
<path d="M73.7561 22.9688V5.83594H78.3808V19.1719H82.6328V5.83594H87.1643V19.1719H91.4047V5.83594H96.0411V19.1719H99.6174V28.3008H95.1324V22.9688H73.7561Z" fill="#BFBFBF"/>
<path d="M101.901 5.83594H106.001V13.1953C106.001 13.9766 105.939 15.5391 105.815 17.8828H105.908L112.699 5.83594H118.384V22.9688H114.307V15.7969C114.307 14.7109 114.377 13.0859 114.517 10.9219H114.424L107.574 22.9688H101.901V5.83594Z" fill="#BFBFBF"/>
<path d="M136.965 22.9688H131.758L126.702 14.2852V22.9688H122.077V5.83594H126.702V14.1328L131.571 5.83594H136.627L131.373 14.0156L136.965 22.9688Z" fill="#BFBFBF"/>
<path d="M167.043 14.3789C167.043 17.2617 166.34 19.4531 164.935 20.9531C163.529 22.4531 161.471 23.2031 158.76 23.2031C156.089 23.2031 154.039 22.4492 152.61 20.9414C151.188 19.4336 150.478 17.2383 150.478 14.3555C150.478 11.5039 151.185 9.32812 152.598 7.82812C154.019 6.32031 156.081 5.56641 158.784 5.56641C161.494 5.56641 163.548 6.3125 164.946 7.80469C166.344 9.29688 167.043 11.4883 167.043 14.3789ZM155.324 14.3789C155.324 17.6914 156.469 19.3477 158.76 19.3477C159.925 19.3477 160.787 18.9453 161.347 18.1406C161.914 17.3359 162.197 16.082 162.197 14.3789C162.197 12.668 161.91 11.4062 161.335 10.5938C160.768 9.77344 159.918 9.36328 158.784 9.36328C156.477 9.36328 155.324 11.0352 155.324 14.3789Z" fill="#BFBFBF"/>
<path d="M184.715 22.9688H180.09V15.9844H174.743V22.9688H170.118V5.83594H174.743V12.1875H180.09V5.83594H184.715V22.9688Z" fill="#BFBFBF"/>
<path d="M202.911 22.9688H198.286V9.62109H195.036C194.858 11.5664 194.617 13.5469 194.314 15.5625C194.019 17.5781 193.735 18.9922 193.463 19.8047C193.192 20.6172 192.846 21.2656 192.427 21.75C192.015 22.2266 191.503 22.5898 190.889 22.8398C190.275 23.082 189.534 23.2031 188.664 23.2031C188.004 23.2031 187.402 23.1172 186.858 22.9453V19.3711C187.324 19.5273 187.705 19.6055 188 19.6055C188.404 19.6055 188.711 19.4375 188.92 19.1016C189.138 18.7578 189.336 18.1797 189.514 17.3672C189.693 16.5469 189.942 15.0312 190.26 12.8203C190.578 10.6016 190.873 8.27344 191.145 5.83594H202.911V22.9688Z" fill="#BFBFBF"/>
<path d="M217.053 22.9688L216.214 19.7578H210.681L209.819 22.9688H204.763L210.32 5.76562H216.459L222.086 22.9688H217.053ZM215.259 15.9609L214.525 13.1484C214.354 12.5234 214.145 11.7148 213.896 10.7227C213.655 9.73047 213.496 9.01953 213.419 8.58984C213.349 8.98828 213.209 9.64453 212.999 10.5586C212.797 11.4727 212.343 13.2734 211.636 15.9609H215.259Z" fill="#BFBFBF"/>
<path d="M223.938 5.83594H228.038V13.1953C228.038 13.9766 227.976 15.5391 227.852 17.8828H227.945L234.737 5.83594H240.422V22.9688H236.344V15.7969C236.344 14.7109 236.414 13.0859 236.554 10.9219H236.461L229.611 22.9688H223.938V5.83594ZM232.139 4.46484C230.283 4.46484 228.893 4.10156 227.968 3.375C227.052 2.64844 226.54 1.52344 226.431 0H230.228C230.267 0.765625 230.434 1.32031 230.729 1.66406C231.024 2.00781 231.494 2.17969 232.139 2.17969C233.304 2.17969 233.941 1.45312 234.049 0H237.905C237.587 2.97656 235.665 4.46484 232.139 4.46484Z" fill="#BFBFBF"/>
<path d="M258.711 22.9688H254.086V15.9844H248.739V22.9688H244.114V5.83594H248.739V12.1875H254.086V5.83594H258.711V22.9688Z" fill="#BFBFBF"/>
<path d="M141.57 19.9688H145.546V23.9688H141.57V19.9688Z" fill="#BFBFBF"/>
<path d="M0.412598 30.9688H258.87V33.9688H0.412598V30.9688Z" fill="#BFBFBF"/>
</svg>
